<svg xmlns="http://www.w3.org/2000/svg" xmlns:xlink="http://www.w3.org/1999/xlink" width="56" zoomAndPan="magnify" viewBox="0 0 42 38.249999" height="51" preserveAspectRatio="xMidYMid meet" version="1.0"><defs><clipPath id="69908580e4"><path d="M 0.402344 0 L 26 0 L 26 34 L 0.402344 34 Z M 0.402344 0 " clip-rule="nonzero"/></clipPath><clipPath id="86afdb85b3"><path d="M 10 6 L 41.59375 6 L 41.59375 37.515625 L 10 37.515625 Z M 10 6 " clip-rule="nonzero"/></clipPath></defs><g clip-path="url(#69908580e4)"><path fill="#8b5bfe" d="M 2.3125 33.65625 L 23.269531 33.65625 C 24.316406 33.65625 25.175781 32.796875 25.175781 31.75 L 25.175781 29.117188 C 24.761719 29.273438 24.347656 29.402344 23.90625 29.496094 L 23.90625 31.75 C 23.90625 32.101562 23.617188 32.386719 23.269531 32.386719 L 2.3125 32.386719 C 1.964844 32.386719 1.679688 32.101562 1.679688 31.75 L 1.679688 1.90625 C 1.679688 1.554688 1.964844 1.269531 2.3125 1.269531 L 23.269531 1.269531 C 23.617188 1.269531 23.90625 1.554688 23.90625 1.90625 L 23.90625 6.0625 C 24.347656 6.160156 24.761719 6.285156 25.175781 6.445312 L 25.175781 1.90625 C 25.175781 0.855469 24.316406 0 23.269531 0 L 2.3125 0 C 1.265625 0 0.410156 0.855469 0.410156 1.90625 L 0.410156 31.75 C 0.410156 32.796875 1.265625 33.65625 2.3125 33.65625 Z M 2.3125 33.65625 " fill-opacity="1" fill-rule="nonzero"/></g><g clip-path="url(#86afdb85b3)"><path fill="#8b5bfe" d="M 33.367188 26.164062 C 32.890625 25.6875 32.222656 25.402344 31.554688 25.402344 C 31.078125 25.402344 30.636719 25.527344 30.253906 25.75 L 29.269531 24.765625 C 32.890625 20.542969 32.699219 14.160156 28.667969 10.160156 C 26.636719 8.128906 23.90625 6.984375 21.046875 6.984375 C 18.15625 6.984375 15.457031 8.097656 13.425781 10.160156 C 9.203125 14.351562 9.203125 21.210938 13.425781 25.402344 C 15.457031 27.433594 18.1875 28.574219 21.046875 28.574219 C 23.777344 28.574219 26.382812 27.558594 28.382812 25.6875 L 29.332031 26.640625 C 29.113281 27.019531 28.984375 27.496094 28.984375 27.941406 C 28.984375 28.640625 29.238281 29.273438 29.746094 29.75 L 36.667969 36.671875 C 37.144531 37.148438 37.8125 37.433594 38.476562 37.433594 C 39.144531 37.433594 39.8125 37.179688 40.289062 36.671875 C 41.304688 35.65625 41.304688 34.035156 40.289062 33.019531 Z M 27.777344 24.511719 C 25.9375 26.382812 23.492188 27.304688 21.046875 27.304688 C 18.601562 27.304688 16.15625 26.382812 14.316406 24.511719 C 10.601562 20.796875 10.601562 14.765625 14.316406 11.050781 C 16.15625 9.175781 18.601562 8.253906 21.046875 8.253906 C 23.492188 8.253906 25.9375 9.175781 27.777344 11.050781 C 31.492188 14.765625 31.492188 20.796875 27.777344 24.511719 Z M 39.398438 35.816406 C 39.144531 36.070312 38.796875 36.195312 38.476562 36.195312 C 38.128906 36.195312 37.8125 36.070312 37.558594 35.816406 L 30.636719 28.894531 C 30.128906 28.386719 30.128906 27.558594 30.636719 27.050781 C 30.890625 26.796875 31.238281 26.671875 31.554688 26.671875 C 31.90625 26.671875 32.222656 26.796875 32.476562 27.050781 L 39.398438 33.972656 C 39.90625 34.480469 39.90625 35.308594 39.398438 35.816406 Z M 39.398438 35.816406 " fill-opacity="1" fill-rule="nonzero"/></g><path fill="#8b5bfe" d="M 23.90625 10.796875 L 16.632812 10.796875 C 16.125 11.113281 15.648438 11.492188 15.203125 11.9375 C 15.171875 11.96875 15.140625 12.035156 15.078125 12.066406 L 23.90625 12.066406 L 23.90625 13.335938 L 14.09375 13.335938 C 13.839844 13.746094 13.617188 14.160156 13.425781 14.605469 L 23.90625 14.605469 L 23.90625 15.875 L 13.015625 15.875 C 12.917969 16.289062 12.855469 16.699219 12.824219 17.144531 L 23.90625 17.144531 L 23.90625 18.414062 L 12.824219 18.414062 C 12.855469 18.859375 12.917969 19.273438 13.015625 19.683594 L 23.90625 19.683594 L 23.90625 20.957031 L 13.425781 20.957031 C 13.617188 21.398438 13.839844 21.8125 14.09375 22.226562 L 23.90625 22.226562 L 23.90625 23.496094 L 15.109375 23.496094 C 15.140625 23.527344 15.171875 23.589844 15.238281 23.621094 C 15.679688 24.066406 16.15625 24.449219 16.664062 24.765625 L 23.90625 24.765625 L 23.90625 25.527344 C 24.347656 25.367188 24.761719 25.179688 25.175781 24.925781 L 25.175781 10.636719 C 24.761719 10.414062 24.347656 10.191406 23.90625 10.03125 Z M 23.90625 10.796875 " fill-opacity="1" fill-rule="nonzero"/></svg>